<svg width="25" height="33" viewBox="0 0 25 33" fill="none" xmlns="http://www.w3.org/2000/svg">
<path d="M1.71141 30.1005H23.3028C23.6066 30.101 23.8989 30.2168 24.1207 30.4244C24.3425 30.6321 24.4773 30.9161 24.4978 31.2193C24.5183 31.5224 24.423 31.822 24.2312 32.0576C24.0394 32.2933 23.7653 32.4473 23.4643 32.4887L23.3028 32.4999H1.71141C1.40529 32.503 1.10955 32.389 0.884767 32.1812C0.659981 31.9734 0.523153 31.6874 0.5023 31.382C0.481447 31.0766 0.578148 30.7747 0.772601 30.5383C0.967053 30.3018 1.24454 30.1487 1.54825 30.1101L1.71141 30.1005H23.3028H1.71141ZM12.3215 0.511197L12.5087 0.5C12.9005 0.500052 13.2786 0.643893 13.5714 0.904243C13.8642 1.16459 14.0513 1.52334 14.0971 1.91244L14.1083 2.0996V22.2385L19.3774 16.9711C19.6528 16.6956 20.0193 16.5302 20.408 16.5057C20.7968 16.4813 21.1811 16.5995 21.4888 16.8383L21.6392 16.9727C21.9146 17.2481 22.0801 17.6146 22.1045 18.0033C22.1289 18.392 22.0107 18.7764 21.772 19.0841L21.6392 19.2345L13.646 27.2261C13.3708 27.5017 13.0044 27.6675 12.6157 27.6922C12.2269 27.7169 11.8425 27.599 11.5345 27.3604L11.3842 27.2277L3.37979 19.2345C3.08986 18.9473 2.92066 18.5601 2.90682 18.1523C2.89298 17.7444 3.03555 17.3467 3.30536 17.0405C3.57516 16.7343 3.95178 16.5428 4.35814 16.5052C4.7645 16.4676 5.16987 16.5868 5.49126 16.8383L5.64162 16.9711L10.9091 22.2305V2.0996C10.9091 1.7078 11.053 1.32965 11.3133 1.03687C11.5737 0.744087 11.9324 0.557037 12.3215 0.511197L12.5087 0.5L12.3215 0.511197Z" fill="white"/>
</svg>
