<svg width="33" height="33" viewBox="0 0 33 33" fill="none" xmlns="http://www.w3.org/2000/svg">
<path d="M27.7739 5.15208C26.3069 3.67144 24.5598 2.49758 22.6346 1.6989C20.7093 0.900229 18.6443 0.492711 16.56 0.500099C7.826 0.500099 0.708021 7.61608 0.700021 16.352C0.700021 19.15 1.43202 21.872 2.81401 24.282L0.572021 32.5L8.98 30.296C11.306 31.5618 13.9118 32.2253 16.56 32.226H16.568C25.3039 32.226 32.4199 25.11 32.4279 16.366C32.4299 14.2821 32.0196 12.2184 31.2205 10.2938C30.4214 8.36921 29.2494 6.62174 27.7719 5.15208H27.7739ZM16.56 29.542C14.198 29.5428 11.8794 28.9072 9.84799 27.702L9.36799 27.414L4.38001 28.722L5.71201 23.856L5.40001 23.354C4.07962 21.2547 3.38131 18.8241 3.38601 16.344C3.38601 9.09207 9.29999 3.17609 16.568 3.17609C18.2994 3.17298 20.0144 3.51264 21.614 4.17547C23.2136 4.8383 24.6661 5.8112 25.8879 7.03808C27.114 8.26017 28.086 9.71292 28.7478 11.3125C29.4096 12.9121 29.7482 14.6269 29.7439 16.358C29.7359 23.636 23.8219 29.542 16.56 29.542ZM23.7899 19.674C23.396 19.476 21.45 18.518 21.084 18.382C20.72 18.252 20.454 18.184 20.194 18.58C19.928 18.974 19.168 19.872 18.94 20.13C18.712 20.396 18.476 20.426 18.08 20.23C17.686 20.03 16.408 19.614 14.896 18.26C13.716 17.21 12.926 15.9101 12.69 15.5161C12.462 15.1201 12.668 14.9081 12.866 14.7101C13.04 14.5341 13.26 14.2461 13.458 14.0181C13.658 13.7901 13.724 13.6221 13.854 13.3581C13.984 13.0901 13.922 12.8621 13.824 12.6641C13.724 12.4661 12.934 10.5121 12.6 9.72407C12.28 8.94607 11.954 9.05407 11.71 9.04407C11.482 9.03007 11.216 9.03007 10.95 9.03007C10.7491 9.03506 10.5514 9.08152 10.3694 9.16653C10.1873 9.25154 10.0248 9.37327 9.89199 9.52407C9.52799 9.92007 8.51 10.8781 8.51 12.8321C8.51 14.7861 9.92999 16.664 10.13 16.93C10.326 17.196 12.918 21.194 16.896 22.914C17.836 23.324 18.576 23.566 19.154 23.75C20.104 24.054 20.962 24.008 21.646 23.91C22.406 23.794 23.9879 22.95 24.3219 22.024C24.6499 21.096 24.6499 20.304 24.5499 20.138C24.4519 19.97 24.1859 19.872 23.7899 19.674Z" fill="white"/>
</svg>
